<svg xmlns="http://www.w3.org/2000/svg" width="32" height="32" viewBox="0 0 32 32" fill="none" class="sc-46e8efb4-0 jthNtK"><g clip-path="url(#clip0_47_1887)" class="sc-46e8efb4-1 hAJEfn"><path fill-rule="evenodd" clip-rule="evenodd" d="M15.3838 7.05192L17.645 0.0516357L19.8321 0.758098L15.7686 13.3378L11.4204 3.97378L13.505 3.00581L15.3838 7.05192Z" fill="#8800FF" class="sc-46e8efb4-2 eybfLE"></path><path fill-rule="evenodd" clip-rule="evenodd" d="M21.892 9.23706L23.4245 5.04834L21.266 4.25867L17.7185 13.9551L29.4869 7.93158L28.4397 5.88567L21.892 9.23706Z" fill="#117D45" class="sc-46e8efb4-2 eybfLE"></path><path fill-rule="evenodd" clip-rule="evenodd" d="M24.9468 15.3839L28.9929 13.5051L28.025 11.4205L18.6609 15.7687L31.2406 19.8322L31.9471 17.6451L24.9468 15.3839Z" fill="#91F925" class="sc-46e8efb4-2 eybfLE"></path><path fill-rule="evenodd" clip-rule="evenodd" d="M18.0437 17.7183L27.7402 21.2659L26.9505 23.4243L22.7618 21.8918L26.1132 28.4395L24.0673 29.4867L18.0437 17.7183Z" fill="#332BFD" class="sc-46e8efb4-2 eybfLE"></path><path fill-rule="evenodd" clip-rule="evenodd" d="M16.2305 18.6609L20.5787 28.025L18.4941 28.9929L16.6153 24.9468L14.3541 31.9471L12.167 31.2406L16.2305 18.6609Z" fill="#FA0B54" class="sc-46e8efb4-2 eybfLE"></path><path fill-rule="evenodd" clip-rule="evenodd" d="M14.2806 18.0436L10.7331 27.74L8.57465 26.9504L10.1071 22.7617L3.55939 26.113L2.51221 24.0671L14.2806 18.0436Z" fill="#FB42DF" class="sc-46e8efb4-2 eybfLE"></path><path fill-rule="evenodd" clip-rule="evenodd" d="M7.05205 16.615L0.0517578 14.3538L0.758221 12.1667L13.338 16.2302L3.9739 20.5783L3.00594 18.4938L7.05205 16.615Z" fill="#FBA808" class="sc-46e8efb4-2 eybfLE"></path><path fill-rule="evenodd" clip-rule="evenodd" d="M9.23747 10.1077L5.88569 3.5592L7.93161 2.51202L13.9561 14.2822L4.25854 10.7328L5.04851 8.57451L9.23747 10.1077Z" fill="#0BC1FA" class="sc-46e8efb4-2 eybfLE"></path></g><defs><clipPath id="clip0_47_1887"><rect width="32" height="32" fill="white" class="sc-46e8efb4-3 dWhVZN"></rect></clipPath></defs></svg>